<?xml version="1.0" encoding="UTF-8"?>
<svg id="Capa_1" data-name="Capa 1" xmlns="http://www.w3.org/2000/svg" viewBox="0 0 486.37 486.37">
  <defs>
    <style>
      .cls-1 {
        stroke: #1d1d1b;
        stroke-width: 3px;
      }

      .cls-1, .cls-2 {
        stroke-miterlimit: 10;
      }

      .cls-1, .cls-2, .cls-3 {
        fill: #1d1d1b;
      }

      .cls-2 {
        stroke: #fff;
        stroke-width: 2px;
      }

      .cls-4 {
        fill: #fffffe;
      }

      .cls-5 {
        fill: #e52723;
      }

      .cls-6 {
        fill: none;
      }

      .cls-7 {
        fill: #fcfbfb;
      }
    </style>
  </defs>
  <circle class="cls-3" cx="243.19" cy="243.19" r="243.19"/>
  <g>
    <path class="cls-6" d="M30.43,152.44c3.13-7.11,6.64-14.14,10.56-21.05,5.25,5.08,10.48,10.19,15.73,15.27-5.25-5.08-10.47-10.2-15.73-15.27-3.91,6.91-7.43,13.94-10.56,21.05Z"/>
    <path class="cls-6" d="M61.9,142.02c-5.75-5.65-11.5-11.29-17.25-16.93h0c5.75,5.65,11.5,11.28,17.25,16.93Z"/>
    <path class="cls-6" d="M366.5,216.22c.41-.81,.56-1.96,1.1-2.7,4.76-13.35,9.23-26.76,11.97-40.67-2.74,13.91-7.21,27.32-11.98,40.68-.54,.74-.69,1.89-1.1,2.69Z"/>
    <path class="cls-6" d="M212.05,163.88c-1.51-.43-2.89-.98-4.14-1.63,1.25,.65,2.64,1.19,4.14,1.63,0,0,0,0,0,0Z"/>
    <path class="cls-3" d="M56.71,146.66c5.25,5.08,10.52,10.14,15.88,15.11,3.28,3.04,3,5.31,.89,8.78-3.96,6.54-2.91,13.63,1.7,19.8,1.71,2.29,5.3,3.14,5.15,6.9-.3,7.52,3.27,13.03,9.06,17.27,3.39,2.48,5.83,5.62,8.41,8.99,3.73,4.86,8.26,9.84,15.74,9.83,2.53,0,5.56-1.41,7.79,.43,6.79,5.62,13.69,6.16,21.03,1.19,1.55-1.05,3.45-1.83,4.92-.2,3.62,3.98,8.28,6.96,11.2,11.71-7.51,3.24-11.66,13.89-10.28,21.24,1.2,6.4,5.78,9.91,10.05,13.63,12.34,10.74,26.85,13.26,42.48,10.1,2.74-.55,4.44-.21,6.31,1.68,6.45,6.51,12.97,12.94,19.54,19.33,23.84,23.18,47.74,46.3,71.55,69.51,13.33,13,26.37,26.31,39.88,39.12,5.33,5.05,10.1,10.79,16.32,14.87,2.01-.08,4.15,.06,4.56-2.76-.58-1.94-1.96-3.28-3.35-4.63-9.53-9.26-18.98-18.62-28.63-27.75-2.22-2.1-2.57-3.8-1.42-6.62,3.82-9.37,9.24-17.88,13.81-26.85,1.85-3.63,4.61-6.93,8.31-9.34,6.28-4.1,12.43-8.44,17.32-14.34,3.31-3.99,7.52-7.17,9.33-12.4,2.33-6.73,3.47-13.2-1.11-19.43-2.3-3.13-2.69-6.06-.61-9.88,3.45-6.34,5.04-13.3,1.49-20.21-1.45-2.83-1.86-5.78-1.23-8.53,1.35-5.85-.16-11.57-1.24-16.91-1.35-6.69-.2-12.26,2.57-17.98,7.76-16.07,14.11-32.68,18.86-49.9,5.9-21.41,9.69-42.96,4.91-65.19-2.08-9.68-6.3-18-13.78-24.44-2.93-2.52-6.55-4.25-10.36-3.28-8.57,2.18-16.59,6.21-24,10.79-7.73,4.76-16.12,8.89-22.29,15.98-1.41,1.62-2.4,.29-3.45-.22-4.22-2.06-7.87-5.34-12.57-6.33-4.79-1.01-9.27-3.18-14.39-3.04-2.87,.08-6-.6-8.33-2.93-4.81-4.82-10.02-9.21-15.97-12.45-3.91-2.13-3.77-5-3.7-8.86,.08-4.29-1.36-8.62-2.2-12.92-2.45-12.56-6.15-24.8-9.65-37.07-3.67-12.85-9.7-18.45-23.67-13.84-8.7,2.87-15.76,8.27-22.57,14.07-7.99,6.8-14.17,15.18-20.26,23.72-4.44,6.22-8.97,12.42-12.85,18.95-9.11,15.31-17.28,31.16-24.13,47.67-1.36,3.29-2.31,7.81-4.85,9.33-4.79,2.85-8.18,7.44-13.28,9.78-1.91,.88-4.28,2.59-4.78,4.39-.91,3.23-2.33,1.64-3.5,.94-6.47-3.92-13.28-6.25-20.98-5.31-8.83,1.07-16.26,5.11-22.84,10.92-1.65,1.46-2.68,1.64-4.38-.05-5.71-5.69-11.44-11.35-17.19-16.99-5.75-5.65-11.5-11.29-17.25-16.93-1.01,.17-2.02,.34-3.03,.52-.63,1.38-1.26,2.76-1.89,4.14,.41,.55,.83,1.1,1.24,1.65,5.25,5.08,10.48,10.19,15.73,15.27Zm114.71,135.54c-4.87-2.04-8.77-5.29-12.38-8.89-6.48-6.46-6.19-13.65,.74-19.54,5.17-4.39,11.17-6.98,17.79-8.17,6.41-1.15,12.31-3.4,17.69-7.33,4.26-3.12,9.21-5,14.59-5.24,3.56-.15,6.2,1.69,7.32,4.8,1.11,3.09-1.85,4.41-3.88,5.84-6.87,4.82-13.73,9.66-20.73,14.29-4.35,2.88-9.43,3.62-14.48,4.24-1.78,.22-4,.3-4.45,2.34-.56,2.54,.42,4.55,3.58,4.22,7.65-.79,15.01-2.31,21.4-7.16,8.23-6.26,17.14-11.53,25.35-17.85,5.95-4.58,14.67-2.25,19,4.6,.85,1.34,1.59,2.74,2.45,4.07,2,3.12,.55,5.94-2.42,7.56-5.4,2.94-10.93,5.63-16.47,8.31-3.94,1.91-7.74,4.08-10.88,7.13-13.29,12.89-28.3,12.94-44.23,6.77Zm87.7,45.83c-2.38,2.23-3.98,2.62-6.62,0-12.78-12.73-25.83-25.18-38.68-37.85-.87-.86-3.55-1.65-2.09-3.25,1.38-1.5,2.92-3.89,6.02-2.67,7.48,2.94,15.14,5.28,23.26,5.64,16.98,.76,31.56-5.1,44.18-16.47,.94-.84,1.57-2.24,3.89-2.27-2.89,5.41-5.64,10.41-8.24,15.49-4.28,8.37-6.47,17.64-10.88,25.97-2.97,5.61-6.15,11.02-10.84,15.42Zm104.27,8.18c-5.65,6.51-12.45,11.56-19.37,16.48-5.16,3.67-8.83,8.62-11.62,14.11-3.96,7.81-8.79,15.18-11.86,23.44-.9,2.41-1.54,2.67-3.55,.68-18.14-17.88-36.4-35.64-54.66-53.39-1.46-1.42-2.37-1.95-.11-3.98,9.65-8.65,14.9-20.14,19.28-32.12,4.31-11.78,9.29-23.24,18.2-32.39,6.21-6.38,11.83-6.23,17.77,.4,3.56,3.98,3.54,5.24,8.61,.43,2.73-2.58,5.76-4.77,9.25-6.21,6.98-2.89,11.57-1.26,14.22,5.84,1.55,4.17,3.81,6.37,8.09,7.56,12.56,3.48,14.05,12.57,8.85,23.35-5.4,4.45-3.51,9.05,1.1,14.73,4.73,5.84,2.45,13.39-4.2,21.05Zm-16.24-196.61c7.26-7.81,14.35-15.83,23.17-21.92,4.49-3.1,5.75-2.54,7.84,2.56,5.56,13.58,4.93,27.6,3.17,41.84-.28,2.23-.6,4.44-.98,6.64-.23,1.38-.49,2.75-.76,4.12-2.74,13.91-7.21,27.32-11.97,40.67-.54,.74-.69,1.89-1.1,2.7-.04,.07-.09,.13-.13,.2-.05,.08-.1,.17-.15,.24-.02,.02-.05,.03-.07,.05-.21,.22-.47,.38-.82,.42-1.77,.21-2.46-1.85-3.34-3.16-9.74-14.5-13.1-30.86-13.54-48.09-.04-1.66,.43-2.22,1.82-2.37,.87-.09,1.76-.02,2.63-.13,4.59-.59,5.48-2.43,2.46-6.01-2.08-2.47-1.83-3.3,1.23-3.94,1.88-.39,3.91-1.09,4.3-3.45,.38-2.33-1.93-2.94-3.13-3.99-2.52-2.2-5.86-2.94-9.12-3.39-2.27-.32-3.26-1.08-1.48-3Zm-86.17,15.41c7.04-9.24,12.07-19.81,18.83-29.24,.97-1.35,1.93-3.2,3.8-2.26,1.57,.79,.98,2.74,.56,4.13-1.87,6.2-3.78,12.39-5.85,18.53-2.07,6.15-3.61,12.4-4.45,19.54-4.24-3.26-7.87-6.35-12.2-8.34-1.19-.55-1.61-1.15-.69-2.36Zm12.4,35.15c1.8-3.2,2.09-6.79,2.76-10.85,6.38,10.47,8.61,21.9,12.54,32.72,.56-3.9,.19-7.65-.53-11.38-1.1-2.01-.57-4.24-.83-6.37-1.38-6.14-2.93-12.23-5.98-17.78-.97-1.76-.66-2.88,.82-4.28,8.71-8.2,18.63-10.52,29.83-6.57,5.54,1.95,10.3,5.23,15,8.84,14.86,11.41,8.67,39.27-5.15,46.05-2.68,1.31-6.35,3.07-5.91,5.9,.35,2.24,4.66,1.39,7.18,1.99,5.08,1.21,10.2,2.18,14.99,4.44,11.58,5.46,15.76,13.73,13.33,27.15-9.81-8.03-18.39-3.3-26.77,2.71-1.5,1.08-2.25,2.22-4.38,.38-8.03-6.96-13.06-7.07-22.17-1.26-.57,.36-1.24,.57-2.47,1.12,1.86-4.07,3.63-7.35,4.87-10.81,2.62-7.28-.47-11.98-8.04-12.37-4.53-.23-9.07,.41-13.2,2.19-8.75,3.77-16.06,.73-22.92-4.4-6.04-4.52-11.02-10.1-15.09-16.52-1.77-2.79-3.57-5.6-6.11-7.76-1.91-1.61-.21-3.02,.16-4.48,.43-1.69,1.69-1.36,2.9-1.04,12.62,3.35,28.61-5.95,35.17-17.63Zm-94.18-73.2c9.74-19.37,20.63-38.06,33.26-55.68,3.74-5.21,7.88-10.06,12.5-14.48,1.28-1.22,2.58-2.47,4.04-3.45,5.85-3.94,6.77-3.72,8.82,2.96,3.18,10.39,3.46,21.25,4.32,32,.23,2.81,.2,5.64,.3,8.95-3.59-2.24-6.5-4.75-10.52-5.2-4.58-.52-5.94,.76-4.31,5,1.04,2.71,1.89,4.44-2.46,4.3-3.78-.12-4.95,2.29-2.51,5.31,3.16,3.91,1.71,5.95-1.71,8.38-11.75,8.34-24.19,14.91-38.76,16.21-1.55,.14-3.63,1.21-4.61-.16-1.04-1.45,.96-2.81,1.64-4.14Zm-35.31,45.97c4.14-6.35,8.49-12.44,15.03-16.48,9.23-5.71,18.14-3.83,26.45,1.79,3.1,2.1,4.26,1.22,4.98-1.69,2.14-8.61,6.68-15.28,14.45-19.74,14.66-8.41,29.47-4.87,40.24,9.85,3.13,4.27,5.75,8.78,6.56,14.19,.27,1.78,.28,2.77-1.86,1.95-7.94-3.07-15.73-1.95-23.98,1.13,.55-5.39-.27-10.21-4.83-13.52-2.5-1.82-5.22-2.84-8.32-2.68-6.35,.32-11.72,5.37-12.43,11.68-.05,.41-.07,.82-.08,1.23,0,.46,.02,.92,.07,1.36,.05,.53,.15,1.06,.27,1.57,.06,.25,.13,.49,.21,.73,0,.01,0,.02,0,.03,1.05,3.26,3.56,6.03,7.24,7.94,1.25,.65,2.64,1.19,4.14,1.63,0,0,0,0,0,0,0,0,0,0,0,0,.11,1.39-1.28,2.02-1.84,3.49-.08,.21-.14,.44-.18,.69,4.75-2.43,8.14-6.49,13.83-8.14-5.53,8.42-6.06,16.96-4.15,25.86,1.34,6.21,3.84,11.88,8.56,16.04,2.48,2.18,1.29,3.68,.6,5.83-.82,2.59-2.42,2.01-4.22,1.75-5.27-.77-10.32,.71-15.42,1.73-4.73,.94-9.43,1.19-14.12-.32-5.44-1.76-7.59-5.98-8.43-11.21-.65-4.04-2.33-7.49-5.48-10.06-3.56-2.9-8.64-1.91-10.05,2.35-4.22,12.72-8.52,25.51-4.92,39.21,.65,2.48,1.55,4.89,2.31,7.34,.33,1.05,1.53,2.34-.16,3.09-1.24,.55-2.65,1.79-4.11,.37-4.61-4.46-9.17-8.97-13.8-13.41-1.64-1.58-.18-2.76,.41-3.99,3.36-7.05,7.15-13.84,6.42-22.21-1.09-12.46-5.87-23.32-13.21-33.07-1.8-2.39-1.76-3.89-.21-6.28Zm78.07-12.14c-1.14,1.54-2.62,1.92-4.27,1.13-1.86-.89-1.89-2.55-1.17-4.17,.85-1.91,2.56-1.92,4.12-1.21,1.84,.84,1.7,2.54,1.32,4.24Zm-142.12,21.64c7.81-10.58,17.63-18.52,31.85-17.66,3.45,.21,6.72,1.15,9.98,2.69,17.43,10.93,28.48,26.18,29.11,47.53,.29,9.75-4.89,17.82-11.94,24.3-3.88,3.57-8.57,3.42-12.63,.03-2.62-2.19-4.96-3.31-8.73-2.75-7.55,1.13-13.47-3.17-16.82-11.29-.81-1.97-1.81-3.27-3.81-4-7.05-2.58-10.18-7.99-10.28-15.33-.04-2.92-.93-4.87-3.41-6.7-6.39-4.68-7.98-10.49-3.31-16.81Z"/>
    <path class="cls-4" d="M366.49,300.43c5.19-10.78,3.71-19.87-8.85-23.35-4.28-1.19-6.54-3.39-8.09-7.56-2.64-7.1-7.24-8.73-14.22-5.84-3.49,1.44-6.52,3.63-9.25,6.21-5.07,4.8-5.05,3.54-8.61-.43-5.94-6.63-11.56-6.78-17.77-.4-8.91,9.15-13.89,20.6-18.2,32.39-4.39,11.98-9.63,23.46-19.28,32.12-2.25,2.02-1.35,2.56,.11,3.98,18.26,17.75,36.52,35.51,54.66,53.39,2.01,1.99,2.66,1.73,3.55-.68,3.07-8.26,7.89-15.63,11.86-23.44,2.79-5.5,6.46-10.44,11.62-14.11,6.92-4.92,13.71-9.97,19.37-16.48,6.65-7.66,8.94-15.21,4.2-21.05-4.6-5.68-6.5-10.28-1.1-14.73Zm-64.02-24.4c1.34-3.04,6.7-5.23,9.48-3.87,3.21,1.57,5.09,7.06,3.46,10.16-1.47,2.81-6.47,4.35-9.49,2.93-3.22-1.51-4.89-5.97-3.45-9.22Zm36.67,49.3c-.89,7.69-9.28,10.35-15.26,5.34-6.87-5.76-13.34-12-18.59-19.36-1.96-2.75-3.67-5.69-1.17-8.95,1.92-4.67,5.19-7.24,10.11-6.85,3.61,.29,6.62-.99,9.81-2.41,7.13-3.18,12.94-1.84,13.36,4.02,.66,9.4,2.82,18.84,1.74,28.21Zm4.15-45.47c-1.68,3.55-5.54,5.04-8.98,3.45-3.69-1.71-5.56-6.28-4.01-9.79,1.51-3.42,6.07-5.33,9.27-3.89,3.68,1.66,5.46,6.56,3.72,10.24Zm5.73,7.01c1.48-2.78,6.51-4.11,9.44-2.51,3.66,2,4.98,6.47,2.95,9.99-1.8,3.12-6.13,4.27-9.33,2.48-3.83-2.14-5.08-6.19-3.07-9.96Zm13.34,40.58c-1.52,3.28-6.41,5.15-9.4,3.58-2.99-1.56-4.63-6.25-3.25-9.3,1.65-3.67,5.89-5.47,9.25-3.93,3.09,1.41,4.87,6.47,3.4,9.65Z"/>
    <path class="cls-7" d="M238.21,207.78c-1.21-.32-2.47-.65-2.9,1.04-.37,1.46-2.07,2.86-.16,4.48,2.55,2.16,4.35,4.97,6.11,7.76,4.07,6.42,9.05,12.01,15.09,16.52,6.86,5.13,14.16,8.17,22.92,4.4,4.14-1.78,8.68-2.42,13.2-2.19,7.57,.39,10.66,5.09,8.04,12.37-1.25,3.46-3.02,6.74-4.87,10.81,1.22-.55,1.89-.75,2.47-1.12,9.12-5.81,14.15-5.7,22.17,1.26,2.12,1.84,2.87,.7,4.38-.38,8.38-6.02,16.96-10.74,26.77-2.71,2.43-13.43-1.75-21.69-13.33-27.15-4.79-2.26-9.9-3.23-14.99-4.44-2.51-.6-6.83,.25-7.18-1.99-.44-2.83,3.23-4.59,5.91-5.9,13.82-6.78,20.01-34.65,5.15-46.05-4.7-3.61-9.46-6.89-15-8.84-11.2-3.95-21.12-1.62-29.83,6.57-1.48,1.39-1.79,2.52-.82,4.28,3.05,5.55,4.6,11.64,5.98,17.78,.56-1.38,1.18-2.75,1.68-4.16,2.02-5.7,6.93-9.4,12.42-9.32,5.54,.08,10.71,4.14,12.2,9.58,1.46,5.34-.7,11.16-5.31,14.29-4.64,3.15-10.78,2.85-15.43-.86-1.5-1.2-2.68-2.83-4.73-3.18,.72,3.73,1.09,7.48,.53,11.38-3.93-10.82-6.16-22.26-12.54-32.72-.66,4.06-.96,7.65-2.76,10.85-6.55,11.68-22.54,20.98-35.17,17.63Z"/>
    <path class="cls-7" d="M157.3,202.28c.73,8.37-3.05,15.16-6.42,22.21-.59,1.23-2.05,2.41-.41,3.99,4.63,4.44,9.19,8.95,13.8,13.41,1.46,1.42,2.87,.18,4.11-.37,1.69-.75,.49-2.04,.16-3.09-.76-2.45-1.65-4.86-2.31-7.34-3.6-13.71,.69-26.5,4.92-39.21,1.42-4.26,6.5-5.25,10.05-2.35,3.15,2.57,4.83,6.03,5.48,10.06,.84,5.23,2.99,9.46,8.43,11.21,4.69,1.51,9.4,1.27,14.12,.32,5.1-1.02,10.15-2.49,15.42-1.73,1.8,.26,3.4,.84,4.22-1.75,.68-2.15,1.87-3.65-.6-5.83-4.72-4.16-7.23-9.82-8.56-16.04-1.91-8.9-1.38-17.43,4.15-25.86-5.7,1.65-9.08,5.71-13.83,8.14,.04-.25,.1-.48,.18-.69,.56-1.47,1.95-2.1,1.83-3.49-1.51-.43-2.89-.98-4.14-1.63-3.68-1.9-6.19-4.67-7.24-7.94,0-.01,0-.02,0-.03-.08-.24-.15-.48-.21-.73-.13-.51-.22-1.04-.27-1.57-.05-.45-.07-.9-.07-1.36,0-.4,.03-.81,.08-1.23,.71-6.31,6.08-11.36,12.43-11.68,3.1-.16,5.82,.86,8.32,2.68,4.55,3.32,5.37,8.13,4.83,13.52,8.25-3.08,16.05-4.19,23.98-1.13,2.14,.83,2.13-.17,1.86-1.95-.82-5.41-3.43-9.91-6.56-14.19-10.77-14.71-25.59-18.26-40.24-9.85-7.77,4.46-12.31,11.13-14.45,19.74-.72,2.91-1.88,3.78-4.98,1.69-8.32-5.62-17.22-7.5-26.45-1.79-6.54,4.05-10.9,10.14-15.03,16.48-1.56,2.39-1.59,3.89,.21,6.28,7.34,9.76,12.12,20.61,13.21,33.07Z"/>
    <path class="cls-7" d="M200.45,153.55c.06,.24,.13,.49,.21,.73-.08-.24-.15-.48-.21-.73Z"/>
    <path class="cls-7" d="M207.91,162.25c-3.68-1.9-6.19-4.67-7.24-7.94,1.05,3.27,3.56,6.04,7.24,7.94Z"/>
    <path class="cls-7" d="M200.18,151.98c.05,.53,.15,1.06,.27,1.57-.13-.51-.22-1.04-.27-1.57Z"/>
    <path class="cls-7" d="M200.66,154.28s0,.02,0,.03c0-.01,0-.02,0-.03Z"/>
    <path class="cls-7" d="M212.05,163.88s0,0,0,0c.12,1.39-1.28,2.02-1.83,3.49,.56-1.47,1.95-2.1,1.84-3.49Z"/>
    <path class="cls-4" d="M83.14,189.23c2.49,1.82,3.38,3.77,3.41,6.7,.1,7.34,3.23,12.75,10.28,15.33,2,.73,3,2.03,3.81,4,3.35,8.12,9.27,12.43,16.82,11.29,3.76-.56,6.1,.56,8.73,2.75,4.07,3.39,8.75,3.54,12.63-.03,7.05-6.48,12.23-14.55,11.94-24.3-.63-21.35-11.68-36.6-29.11-47.53-3.26-1.54-6.53-2.49-9.98-2.69-14.22-.85-24.04,7.08-31.85,17.66-4.66,6.32-3.08,12.13,3.31,16.81Z"/>
    <path class="cls-5" d="M226.52,268.3c5.54-2.67,11.07-5.37,16.47-8.31,2.98-1.62,4.42-4.44,2.42-7.56-.85-1.33-1.6-2.74-2.45-4.07-4.33-6.85-13.05-9.19-19-4.6-8.21,6.32-17.12,11.6-25.35,17.85-6.39,4.85-13.75,6.37-21.4,7.16-3.16,.32-4.14-1.68-3.58-4.22,.45-2.04,2.67-2.12,4.45-2.34,5.06-.62,10.13-1.36,14.48-4.24,7-4.63,13.86-9.47,20.73-14.29,2.03-1.42,4.99-2.75,3.88-5.84-1.12-3.11-3.77-4.95-7.32-4.8-5.39,.23-10.33,2.12-14.59,5.24-5.38,3.93-11.28,6.18-17.69,7.33-6.62,1.19-12.62,3.78-17.79,8.17-6.94,5.89-7.22,13.08-.74,19.54,3.61,3.6,7.51,6.85,12.38,8.89,15.93,6.18,30.94,6.12,44.23-6.77,3.14-3.04,6.94-5.22,10.88-7.13Z"/>
    <path class="cls-7" d="M182.16,121.25c14.57-1.3,27-7.86,38.76-16.21,3.42-2.43,4.87-4.46,1.71-8.38-2.44-3.03-1.27-5.43,2.51-5.31,4.35,.14,3.5-1.59,2.46-4.3-1.63-4.24-.26-5.52,4.31-5,4.02,.45,6.93,2.97,10.52,5.2-.11-3.31-.08-6.14-.3-8.95-.86-10.75-1.14-21.61-4.32-32-2.05-6.69-2.97-6.9-8.82-2.96-1.46,.98-2.76,2.23-4.04,3.45-4.63,4.42-8.77,9.27-12.5,14.48-12.63,17.62-23.51,36.31-33.26,55.68-.67,1.34-2.68,2.69-1.64,4.14,.98,1.36,3.06,.3,4.61,.16Z"/>
    <path class="cls-4" d="M348.62,142.6c3.25,.46,6.59,1.19,9.12,3.39,1.2,1.05,3.52,1.65,3.13,3.99-.39,2.35-2.42,3.06-4.3,3.45-3.06,.63-3.31,1.47-1.23,3.94,3.02,3.58,2.14,5.41-2.46,6.01-.87,.11-1.76,.04-2.63,.13-1.39,.15-1.86,.72-1.82,2.37,.45,17.24,3.8,33.59,13.54,48.09,.88,1.31,1.57,3.37,3.34,3.16,.35-.04,.61-.2,.82-.42,.02-.02,.05-.03,.07-.05,.06-.07,.1-.16,.15-.24,.04-.07,.09-.12,.13-.2,.41-.8,.56-1.96,1.1-2.69,4.77-13.36,9.24-26.77,11.98-40.68,.27-1.37,.53-2.74,.76-4.12,.37-2.2,.7-4.41,.98-6.64,1.76-14.24,2.39-28.26-3.17-41.84-2.09-5.1-3.35-5.66-7.84-2.56-8.82,6.09-15.91,14.11-23.17,21.92-1.78,1.92-.79,2.68,1.48,3Z"/>
    <path class="cls-7" d="M280.84,286.65c2.6-5.08,5.36-10.08,8.24-15.49-2.32,.03-2.95,1.43-3.89,2.27-12.62,11.37-27.19,17.23-44.18,16.47-8.12-.36-15.78-2.7-23.26-5.64-3.1-1.22-4.64,1.17-6.02,2.67-1.46,1.6,1.22,2.39,2.09,3.25,12.85,12.67,25.9,25.12,38.68,37.85,2.63,2.62,4.24,2.23,6.62,0,4.69-4.4,7.87-9.81,10.84-15.42,4.41-8.33,6.6-17.59,10.88-25.97Z"/>
    <path class="cls-1" d="M308.3,204.68c4.61-3.13,6.77-8.95,5.31-14.29-1.49-5.44-6.66-9.5-12.2-9.58-5.5-.08-10.4,3.61-12.42,9.32-.5,1.41-1.12,2.77-1.68,4.16,.26,2.12-.27,4.36,.83,6.37,2.05,.35,3.23,1.98,4.73,3.18,4.65,3.71,10.79,4,15.43,.86Zm-3.85-13.87c.95-1.73,2.66-2.02,4.31-1.3,2.12,.93,1.8,2.83,1.56,4.41-1.43,2.18-3.29,2.19-4.91,1.29-1.64-.92-1.86-2.75-.96-4.4Z"/>
    <path class="cls-7" d="M261.67,157.36c4.34,1.99,7.96,5.08,12.2,8.34,.85-7.13,2.38-13.39,4.45-19.54,2.07-6.14,3.97-12.33,5.85-18.53,.42-1.39,1.02-3.34-.56-4.13-1.87-.94-2.83,.91-3.8,2.26-6.76,9.43-11.79,20-18.83,29.24-.92,1.2-.5,1.81,.69,2.36Z"/>
    <path class="cls-7" d="M216.51,147.74c-.72,1.62-.69,3.28,1.17,4.17,1.65,.79,3.13,.41,4.27-1.13,.38-1.7,.52-3.41-1.32-4.24-1.57-.71-3.27-.7-4.12,1.21Z"/>
    <path class="cls-5" d="M324.04,293.1c-3.18,1.42-6.2,2.7-9.81,2.41-4.92-.39-8.19,2.18-10.11,6.85-2.51,3.25-.8,6.2,1.17,8.95,5.25,7.37,11.72,13.6,18.59,19.36,5.98,5.02,14.37,2.36,15.26-5.34,1.08-9.37-1.08-18.81-1.74-28.21-.41-5.86-6.22-7.2-13.36-4.02Z"/>
    <path class="cls-5" d="M339.57,269.61c-3.19-1.44-7.76,.48-9.27,3.89-1.55,3.52,.32,8.08,4.01,9.79,3.43,1.59,7.29,.11,8.98-3.45,1.74-3.68-.04-8.58-3.72-10.24Z"/>
    <path class="cls-5" d="M352.08,296.82c3.2,1.79,7.53,.64,9.33-2.48,2.02-3.52,.7-7.99-2.95-9.99-2.93-1.6-7.96-.26-9.44,2.51-2.01,3.76-.76,7.82,3.07,9.96Z"/>
    <path class="cls-5" d="M305.92,285.25c3.02,1.42,8.02-.12,9.49-2.93,1.62-3.1-.25-8.59-3.46-10.16-2.78-1.36-8.14,.83-9.48,3.87-1.44,3.25,.23,7.71,3.45,9.22Z"/>
    <path class="cls-5" d="M358.95,317.78c-3.36-1.54-7.59,.26-9.25,3.93-1.38,3.05,.26,7.74,3.25,9.3,2.99,1.56,7.88-.3,9.4-3.58,1.47-3.18-.31-8.24-3.4-9.65Z"/>
    <path class="cls-7" d="M305.41,195.2c1.62,.91,3.48,.89,4.91-1.29,.24-1.58,.56-3.48-1.56-4.41-1.65-.72-3.36-.43-4.31,1.3-.9,1.64-.68,3.48,.96,4.4Z"/>
  </g>
  <polygon class="cls-3" points="354.33 435.92 360.56 441.95 364.97 438.94 358.79 432.88 354.33 435.92"/>
  <path class="cls-2" d="M94.24,390.79c6.03-9.32,11.13-17.21,16.39-25.34-1.61-.58-3.35-1.1-4.99-1.8-7.97-3.4-10.99-10.06-10.06-18.94,1.41-13.36,9.13-23.72,20.35-31.75,18.2-13.02,37.3-18.61,57.11-13.3,8.46,2.27,12.42,9.7,9.97,17.73-1.74,5.7-8.57,10.76-14.19,10.51-4.69-.21-6.01-3.91-2.86-7.98,5.81-7.51,4.85-10.05-4.02-10.3-13.37-.37-24.89,5.77-35.5,14.94-5.07,4.38-9.12,9.39-11.16,15.67-1.91,5.91-.13,10.1,4.5,13.52,2.71-2.92,5.29-5.77,7.94-8.55,6.17-6.45,11.95-13.4,18.73-19.09,3.59-3.01,8.95-3.79,13.52-5.58,.31,.38,.63,.75,.94,1.13-7.69,9.56-15.38,19.11-23.06,28.67,.27,.37,.54,.74,.81,1.1,5.71-1.24,11.6-3.56,17.08-3.48,9.51,.14,14.76-6.19,20.64-12.45,4.98-5.29,10.4-10.19,15.55-15.33,3.01-3,6.14-3.67,9.61-2.5,2.03,.68,4.16,1.14,5.78,1.57-8.52,8.55-16.96,17.04-26.04,26.16,8.58,2.24,16.16,4.17,16.36,14.5-5.61-6.81-13.66-6.03-21.55-4.96-1.73,.23-4.05,2.85-5.18,4.79-7.2,12.37-14.14,24.86-21.17,37.32-3.57-1.55-7.69-3.34-12.6-5.47,6.69-11.27,11.48-23.72,22.14-33.76-6.06,1.58-12.12,3.13-18.17,4.74-3.33,.89-6.68,2.42-9.96,2.72-3.17,.28-4.68,2.14-6.06,4.37-4.41,7.12-8.67,14.32-13.04,21.46-.44,.72-1.42,1.84-1.9,1.79-5.02-.54-9.99-1.29-15.9-2.11Z"/>
</svg>